<?xml version="1.0" encoding="UTF-8"?>
<svg width="894px" height="893px" viewBox="0 0 894 893" version="1.1" xmlns="http://www.w3.org/2000/svg" xmlns:xlink="http://www.w3.org/1999/xlink">
    <!-- Generator: Sketch 55.2 (78181) - https://sketchapp.com -->
    <title>gamepad-solid</title>
    <desc>Created with Sketch.</desc>
    <g id="Page-1" stroke="none" stroke-width="1" fill="none" fill-rule="evenodd">
        <g id="gamepad-solid" fill="#FFFFFF" fill-rule="nonzero">
            <path d="M447,0 C200.068548,0 0,199.844758 0,446.5 C0,693.155242 200.068548,893 447,893 C693.931452,893 894,693.155242 894,446.5 C894,199.844758 693.931452,0 447,0 Z M447,806.580645 C247.832661,806.580645 86.516129,645.444556 86.516129,446.5 C86.516129,247.555444 247.832661,86.4193548 447,86.4193548 C646.167339,86.4193548 807.483871,247.555444 807.483871,446.5 C807.483871,645.444556 646.167339,806.580645 447,806.580645 Z" id="Shape-Copy"></path>
            <path d="M596.547898,296.000002 L297.517518,296.000002 C229.672953,295.990312 170.329796,341.676765 152.982639,407.272918 C135.635482,472.869072 164.635106,541.922972 223.613484,575.45907 C282.591861,608.995168 356.75682,598.602386 404.248016,550.146641 L489.752001,550.146641 C537.237523,598.596592 611.391365,608.993327 670.36758,575.469837 C729.343796,541.946348 758.35447,472.908439 741.028516,407.31507 C723.702561,341.721701 664.384351,296.019997 596.547898,296.000002 Z M379.732888,456.710377 C379.732888,462.902788 374.713469,467.922729 368.521701,467.922729 L319.939892,467.922729 L319.939892,516.509586 C319.939892,522.701997 314.920473,527.721938 308.728705,527.721938 L286.306331,527.721938 C280.114564,527.721938 275.095145,522.701997 275.095145,516.509586 L275.095145,467.922729 L226.513335,467.922729 C220.321568,467.922729 215.302148,462.902788 215.302148,456.710377 L215.302148,434.285674 C215.302148,428.093263 220.321568,423.073322 226.513335,423.073322 L275.095145,423.073322 L275.095145,374.486465 C275.095145,368.294054 280.114564,363.274113 286.306331,363.274113 L308.728705,363.274113 C314.920473,363.274113 319.939892,368.294054 319.939892,374.486465 L319.939892,423.073322 L368.521701,423.073322 C374.713469,423.073322 379.732888,428.093263 379.732888,434.285674 L379.732888,456.710377 Z M581.53425,527.721938 C566.419244,527.721938 552.792559,518.615932 547.008297,504.650036 C541.224035,490.684141 544.421306,474.6087 555.10923,463.919666 C565.797153,453.230632 581.870924,450.033028 595.835368,455.817892 C609.799813,461.602755 618.904873,475.230856 618.904873,490.347432 C618.904873,510.988802 602.173475,527.721938 581.53425,527.721938 L581.53425,527.721938 Z M641.327247,438.023124 C620.688022,438.023124 603.956624,421.289988 603.956624,400.648619 C603.956624,380.007249 620.688022,363.274113 641.327247,363.274113 C661.966472,363.274113 678.697869,380.007249 678.697869,400.648619 C678.697869,421.289988 661.966472,438.023124 641.327247,438.023124 Z" id="Shape"></path>
        </g>
    </g>
</svg>