<?xml version="1.0" encoding="UTF-8"?>
<svg width="392px" height="392px" viewBox="0 0 392 392" version="1.1" xmlns="http://www.w3.org/2000/svg" xmlns:xlink="http://www.w3.org/1999/xlink">
    <!-- Generator: Sketch 55.2 (78181) - https://sketchapp.com -->
    <title>Untitled</title>
    <desc>Created with Sketch.</desc>
    <g id="Page-1" stroke="none" stroke-width="1" fill="none" fill-rule="evenodd">
        <g id="spinner">
            <path d="M40.21,126.43 C43.91,119.12 47.88,111.99 52.21,105.11 L55.57,100.01 L59.09,95.01 C60.32,93.38 61.5,91.72 62.74,90.1 C63.98,88.48 65.27,86.89 66.56,85.31 C71.7714974,78.983928 77.3971994,73.0107954 83.4,67.43 C89.418549,61.8393988 95.7629951,56.6102396 102.4,51.77 C105.75,49.36 109.14,46.99 112.65,44.77 C116.16,42.55 119.76,40.49 123.4,38.45 C130.69,34.45 138.13,30.45 145.93,26.96 C149.83,25.24 153.81,23.66 157.93,22.32 C162.006267,20.9884301 166.160831,19.9097128 170.37,19.09 C174.570831,18.1882008 178.853523,17.7223994 183.15,17.7 C187.686875,17.8003054 192.117911,19.0899612 196,21.44 C199.040203,23.3670931 199.955698,27.3863405 198.05,30.44 C197.616639,31.1285198 197.060796,31.7318134 196.41,32.22 L196,32.51 C194.232279,33.790312 192.284413,34.8013153 190.22,35.51 C188.386923,36.2323454 186.488003,36.7748939 184.55,37.13 C182.674033,37.5103156 180.771901,37.7476642 178.86,37.84 C177.86,37.84 176.96,38.02 176.01,38.1 L173.16,38.34 C169.346667,38.68 165.52,39.0466667 161.68,39.44 C157.84,39.84 153.97,40.26 150.1,40.84 C142.27747,41.8988367 134.588328,43.779224 127.16,46.45 C123.44,47.8 119.82,49.45 116.22,51.09 C112.62,52.73 109.08,54.6 105.62,56.6 C91.732703,64.7039005 79.2230371,74.9654721 68.56,87 C67.23,88.48 66,90 64.64,91.56 C63.28,93.12 62.13,94.71 60.89,96.29 L57.35,101.19 C56.22,102.85 55.12,104.54 54.02,106.19 C49.7034234,112.990515 46.0436026,120.186265 43.09,127.68 C42.7724363,128.508427 41.8434271,128.922564 41.015,128.605 C40.1865729,128.287436 39.7724363,127.358427 40.09,126.53 C40.09,126.53 40.19,126.47 40.21,126.43 Z" id="Path" fill="#E0684B" fill-rule="nonzero"></path>
            <path d="M239.226866,172.73 C242.926866,165.42 246.896866,158.29 251.226866,151.41 L254.586866,146.31 L258.106866,141.31 C259.336866,139.68 260.516866,138.02 261.756866,136.4 C262.996866,134.78 264.286866,133.19 265.576866,131.61 C270.788363,125.283928 276.414065,119.310795 282.416866,113.73 C288.435415,108.139399 294.779861,102.91024 301.416866,98.07 C304.766866,95.66 308.156866,93.29 311.666866,91.07 C315.176866,88.85 318.776866,86.79 322.416866,84.75 C329.706866,80.75 337.146866,76.75 344.946866,73.26 C348.846866,71.54 352.826866,69.96 356.946866,68.62 C361.023133,67.2884301 365.177697,66.2097128 369.386866,65.39 C373.587696,64.4882008 377.870388,64.0223994 382.166866,64 C386.70374,64.1003054 391.134777,65.3899612 395.016866,67.74 C398.057069,69.6670931 398.972564,73.6863405 397.066866,76.74 C396.633505,77.4285198 396.077661,78.0318134 395.426866,78.52 L395.016866,78.81 C393.249145,80.090312 391.301279,81.1013153 389.236866,81.81 C387.403788,82.5323454 385.504869,83.0748939 383.566866,83.43 C381.690899,83.8103156 379.788767,84.0476642 377.876866,84.14 C376.876866,84.14 375.976866,84.32 375.026866,84.4 L372.176866,84.64 C368.363532,84.98 364.536866,85.3466667 360.696866,85.74 C356.856866,86.14 352.986866,86.56 349.116866,87.14 C341.294336,88.1988367 333.605194,90.079224 326.176866,92.75 C322.456866,94.1 318.836866,95.75 315.236866,97.39 C311.636866,99.03 308.096866,100.9 304.636866,102.9 C290.749569,111.003901 278.239903,121.265472 267.576866,133.3 C266.246866,134.78 265.016866,136.3 263.656866,137.86 C262.296866,139.42 261.146866,141.01 259.906866,142.59 L256.366866,147.49 C255.236866,149.15 254.136866,150.84 253.036866,152.49 C248.720289,159.290515 245.060468,166.486265 242.106866,173.98 C241.789302,174.808427 240.860293,175.222564 240.031866,174.905 C239.203439,174.587436 238.789302,173.658427 239.106866,172.83 C239.106866,172.83 239.206866,172.77 239.226866,172.73 Z" id="Path-Copy" fill="#9CCBCE" fill-rule="nonzero" transform="translate(318.530499, 119.505933) rotate(-270.000000) translate(-318.530499, -119.505933) "></path>
            <path d="M193.226866,371.73 C196.926866,364.42 200.896866,357.29 205.226866,350.41 L208.586866,345.31 L212.106866,340.31 C213.336866,338.68 214.516866,337.02 215.756866,335.4 C216.996866,333.78 218.286866,332.19 219.576866,330.61 C224.788363,324.283928 230.414065,318.310795 236.416866,312.73 C242.435415,307.139399 248.779861,301.91024 255.416866,297.07 C258.766866,294.66 262.156866,292.29 265.666866,290.07 C269.176866,287.85 272.776866,285.79 276.416866,283.75 C283.706866,279.75 291.146866,275.75 298.946866,272.26 C302.846866,270.54 306.826866,268.96 310.946866,267.62 C315.023133,266.28843 319.177697,265.209713 323.386866,264.39 C327.587696,263.488201 331.870388,263.022399 336.166866,263 C340.70374,263.100305 345.134777,264.389961 349.016866,266.74 C352.057069,268.667093 352.972564,272.686341 351.066866,275.74 C350.633505,276.42852 350.077661,277.031813 349.426866,277.52 L349.016866,277.81 C347.249145,279.090312 345.301279,280.101315 343.236866,280.81 C341.403788,281.532345 339.504869,282.074894 337.566866,282.43 C335.690899,282.810316 333.788767,283.047664 331.876866,283.14 C330.876866,283.14 329.976866,283.32 329.026866,283.4 L326.176866,283.64 C322.363532,283.98 318.536866,284.346667 314.696866,284.74 C310.856866,285.14 306.986866,285.56 303.116866,286.14 C295.294336,287.198837 287.605194,289.079224 280.176866,291.75 C276.456866,293.1 272.836866,294.75 269.236866,296.39 C265.636866,298.03 262.096866,299.9 258.636866,301.9 C244.749569,310.003901 232.239903,320.265472 221.576866,332.3 C220.246866,333.78 219.016866,335.3 217.656866,336.86 C216.296866,338.42 215.146866,340.01 213.906866,341.59 L210.366866,346.49 C209.236866,348.15 208.136866,349.84 207.036866,351.49 C202.720289,358.290515 199.060468,365.486265 196.106866,372.98 C195.789302,373.808427 194.860293,374.222564 194.031866,373.905 C193.203439,373.587436 192.789302,372.658427 193.106866,371.83 C193.106866,371.83 193.206866,371.77 193.226866,371.73 Z" id="Path-Copy-2" fill="#EDA637" fill-rule="nonzero" transform="translate(272.530499, 318.505933) rotate(-180.000000) translate(-272.530499, -318.505933) "></path>
            <path d="M-5.7731343,325.73 C-2.0731343,318.42 1.8968657,311.29 6.2268657,304.41 L9.5868657,299.31 L13.1068657,294.31 C14.3368657,292.68 15.5168657,291.02 16.7568657,289.4 C17.9968657,287.78 19.2868657,286.19 20.5768657,284.61 C25.7883631,278.283928 31.4140651,272.310795 37.4168657,266.73 C43.4354148,261.139399 49.7798608,255.91024 56.4168657,251.07 C59.7668657,248.66 63.1568657,246.29 66.6668657,244.07 C70.1768657,241.85 73.7768657,239.79 77.4168657,237.75 C84.7068657,233.75 92.1468657,229.75 99.9468657,226.26 C103.846866,224.54 107.826866,222.96 111.946866,221.62 C116.023133,220.28843 120.177697,219.209713 124.386866,218.39 C128.587696,217.488201 132.870388,217.022399 137.166866,217 C141.70374,217.100305 146.134777,218.389961 150.016866,220.74 C153.057069,222.667093 153.972564,226.686341 152.066866,229.74 C151.633505,230.42852 151.077661,231.031813 150.426866,231.52 L150.016866,231.81 C148.249145,233.090312 146.301279,234.101315 144.236866,234.81 C142.403788,235.532345 140.504869,236.074894 138.566866,236.43 C136.690899,236.810316 134.788767,237.047664 132.876866,237.14 C131.876866,237.14 130.976866,237.32 130.026866,237.4 L127.176866,237.64 C123.363532,237.98 119.536866,238.346667 115.696866,238.74 C111.856866,239.14 107.986866,239.56 104.116866,240.14 C96.2943359,241.198837 88.6051941,243.079224 81.1768657,245.75 C77.4568657,247.1 73.8368657,248.75 70.2368657,250.39 C66.6368657,252.03 63.0968657,253.9 59.6368657,255.9 C45.7495687,264.003901 33.2399028,274.265472 22.5768657,286.3 C21.2468657,287.78 20.0168657,289.3 18.6568657,290.86 C17.2968657,292.42 16.1468657,294.01 14.9068657,295.59 L11.3668657,300.49 C10.2368657,302.15 9.1368657,303.84 8.0368657,305.49 C3.72028912,312.290515 0.060468324,319.486265 -2.8931343,326.98 C-3.21069803,327.808427 -4.13970717,328.222564 -4.9681343,327.905 C-5.79656142,327.587436 -6.21069803,326.658427 -5.8931343,325.83 C-5.8931343,325.83 -5.7931343,325.77 -5.7731343,325.73 Z" id="Path-Copy-3" fill="#4F9542" fill-rule="nonzero" transform="translate(73.530499, 272.505933) rotate(-90.000000) translate(-73.530499, -272.505933) "></path>
            <rect id="Rectangle" x="0" y="0" width="392" height="392"></rect>
        </g>
    </g>
</svg>