<?xml version="1.0" encoding="UTF-8"?>
<svg width="894px" height="893px" viewBox="0 0 894 893" version="1.1" xmlns="http://www.w3.org/2000/svg" xmlns:xlink="http://www.w3.org/1999/xlink">
    <!-- Generator: Sketch 55.2 (78181) - https://sketchapp.com -->
    <title>arrow-left-solid</title>
    <desc>Created with Sketch.</desc>
    <g id="Page-1" stroke="none" stroke-width="1" fill="none" fill-rule="evenodd">
        <g id="arrow-left-solid" fill="#FFFFFF" fill-rule="nonzero">
            <path d="M447,0 C200.068548,0 0,199.844758 0,446.5 C0,693.155242 200.068548,893 447,893 C693.931452,893 894,693.155242 894,446.5 C894,199.844758 693.931452,0 447,0 Z M447,806.580645 C247.832661,806.580645 86.516129,645.444556 86.516129,446.5 C86.516129,247.555444 247.832661,86.4193548 447,86.4193548 C646.167339,86.4193548 807.483871,247.555444 807.483871,446.5 C807.483871,645.444556 646.167339,806.580645 447,806.580645 Z" id="Shape-Copy-6"></path>
            <path d="M481.5,646.1 L459.3,668.3 C449.9,677.7 434.7,677.7 425.4,668.3 L231,474 C221.6,464.6 221.6,449.4 231,440.1 L425.4,245.7 C434.8,236.3 450,236.3 459.3,245.7 L481.5,267.9 C491,277.4 490.8,292.9 481.1,302.2 L360.6,417 L648,417 C661.3,417 672,427.7 672,441 L672,473 C672,486.3 661.3,497 648,497 L360.6,497 L481.1,611.8 C490.9,621.1 491.1,636.6 481.5,646.1 Z" id="Path"></path>
        </g>
    </g>
</svg>