<?xml version="1.0" encoding="UTF-8"?>
<svg width="894px" height="893px" viewBox="0 0 894 893" version="1.1" xmlns="http://www.w3.org/2000/svg" xmlns:xlink="http://www.w3.org/1999/xlink">
    <!-- Generator: Sketch 55.2 (78181) - https://sketchapp.com -->
    <title>microphone-slash-solid</title>
    <desc>Created with Sketch.</desc>
    <g id="Page-1" stroke="none" stroke-width="1" fill="none" fill-rule="evenodd">
        <g id="microphone-slash-solid" fill="#FFFFFF" fill-rule="nonzero">
            <path d="M447,0 C200.068548,0 0,199.844758 0,446.5 C0,693.155242 200.068548,893 447,893 C693.931452,893 894,693.155242 894,446.5 C894,199.844758 693.931452,0 447,0 Z M447,806.580645 C247.832661,806.580645 86.516129,645.444556 86.516129,446.5 C86.516129,247.555444 247.832661,86.4193548 447,86.4193548 C646.167339,86.4193548 807.483871,247.555444 807.483871,446.5 C807.483871,645.444556 646.167339,806.580645 447,806.580645 Z" id="Shape-Copy-2"></path>
            <path d="M691.190349,602.993557 L568.402261,507.951133 C578.198852,489.240338 583.949194,468.105946 583.949194,445.498691 L583.949194,408.092687 C583.949194,401.203748 578.377821,395.624019 571.499198,395.624019 L559.049201,395.624019 C552.170578,395.624019 546.599205,401.203748 546.599205,408.092687 L546.599205,445.498691 C546.599205,459.4636 543.517831,472.618045 538.257708,484.619138 L517.598495,468.628071 C520.010682,461.302728 521.706994,453.650083 521.706994,445.506484 L521.706994,320.812009 C521.706994,279.49396 488.263191,246 447.007016,246 C405.750841,246 372.307039,279.49396 372.307039,320.812009 L372.307039,356.160684 L233.380643,248.626213 C227.949332,244.402452 220.121397,245.376567 215.903961,250.816023 L200.62159,270.508726 C196.404154,275.94039 197.37681,283.772272 202.808121,288.003826 L660.625608,642.37117 C666.056919,646.602724 673.877073,645.620816 678.102291,640.18136 L693.384661,620.488657 C697.594316,615.056993 696.62166,607.225111 691.190349,602.993557 Z M509.249216,607.591378 L465.674229,607.591378 L465.674229,581.274695 C474.747164,580.027829 483.45438,577.736711 491.87369,574.798781 L452.881858,544.616811 C447.660641,544.928528 442.447205,545.294795 437.047019,544.772669 C393.588751,540.525529 360.21498,506.875711 350.535108,465.401803 L310.049276,434.050895 L310.049276,439.389044 C310.049276,509.244758 359.825918,571.517963 428.324241,580.978565 L428.324241,607.591378 L384.749254,607.591378 C377.870631,607.591378 372.299258,613.171107 372.299258,620.060047 L372.299258,632.528715 C372.299258,639.417654 377.870631,644.997383 384.749254,644.997383 L509.249216,644.997383 C516.127839,644.997383 521.699213,639.417654 521.699213,632.528715 L521.699213,620.060047 C521.699213,613.171107 516.127839,607.591378 509.249216,607.591378 Z" id="Shape"></path>
        </g>
    </g>
</svg>