<?xml version="1.0" encoding="UTF-8"?>
<svg width="894px" height="893px" viewBox="0 0 894 893" version="1.1" xmlns="http://www.w3.org/2000/svg" xmlns:xlink="http://www.w3.org/1999/xlink">
    <!-- Generator: Sketch 55.2 (78181) - https://sketchapp.com -->
    <title>quiz-solid</title>
    <desc>Created with Sketch.</desc>
    <g id="Page-1" stroke="none" stroke-width="1" fill="none" fill-rule="evenodd">
        <g id="quiz-solid" transform="translate(0.000000, -0.500000)" fill="#FFFFFF" fill-rule="nonzero">
            <path d="M330.61,393.69 C328.358378,391.430546 325.299818,390.160537 322.11,390.160537 C318.920182,390.160537 315.861622,391.430546 313.61,393.69 L249.93,457.41 L227.23,435.31 C224.978378,433.050546 221.919818,431.780537 218.73,431.780537 C215.540182,431.780537 212.481622,433.050546 210.23,435.31 L194.53,451 C192.270546,453.251622 191.000537,456.310182 191.000537,459.5 C191.000537,462.689818 192.270546,465.748378 194.53,468 L242,515.5 C246.930028,520.188261 254.669972,520.188261 259.6,515.5 L275.3,499.81 L347.5,427.59 C352.16445,422.936639 352.204624,415.392776 347.59,410.69 L330.61,393.69 Z M255,567 C228.51,567 206.41,588.5 206.41,615 C206.41,641.5 228.53,663 255,663 C281.509668,663 303,641.509668 303,615 C303,588.490332 281.509668,567 255,567 Z M255,247.5 C228.51,247.5 206.41,269 206.41,295.5 C206.41,322 228.53,343.5 255,343.5 C281.509668,343.5 303,322.009668 303,295.5 C303,268.990332 281.509668,247.5 255,247.5 Z M687,583 L399,583 C390.163444,583 383,590.163444 383,599 L383,631 C383,639.836556 390.163444,647 399,647 L687,647 C695.836556,647 703,639.836556 703,631 L703,599 C703,590.163444 695.836556,583 687,583 Z M687,263 L399,263 C390.163444,263 383,270.163444 383,279 L383,311 C383,319.836556 390.163444,327 399,327 L687,327 C695.836556,327 703,319.836556 703,311 L703,279 C703,270.163444 695.836556,263 687,263 Z M687,423 L399,423 C390.163444,423 383,430.163444 383,439 L383,471 C383,479.836556 390.163444,487 399,487 L687,487 C695.836556,487 703,479.836556 703,471 L703,439 C703,430.163444 695.836556,423 687,423 Z" id="Shape"></path>
            <path d="M447,0.5 C200.068548,0.5 0,200.344758 0,447 C0,693.655242 200.068548,893.5 447,893.5 C693.931452,893.5 894,693.655242 894,447 C894,200.344758 693.931452,0.5 447,0.5 Z M447,807.080645 C247.832661,807.080645 86.516129,645.944556 86.516129,447 C86.516129,248.055444 247.832661,86.9193548 447,86.9193548 C646.167339,86.9193548 807.483871,248.055444 807.483871,447 C807.483871,645.944556 646.167339,807.080645 447,807.080645 Z" id="Shape-Copy-5"></path>
        </g>
    </g>
</svg>