<?xml version="1.0" encoding="UTF-8"?>
<svg width="894px" height="893px" viewBox="0 0 894 893" version="1.1" xmlns="http://www.w3.org/2000/svg" xmlns:xlink="http://www.w3.org/1999/xlink">
    <!-- Generator: Sketch 55.2 (78181) - https://sketchapp.com -->
    <title>info-solid</title>
    <desc>Created with Sketch.</desc>
    <g id="Page-1" stroke="none" stroke-width="1" fill="none" fill-rule="evenodd">
        <g id="info-solid" transform="translate(0.000000, -0.500000)" fill="#FFFFFF" fill-rule="nonzero">
            <path d="M371,615.229 L391,615.229 L391,470.771 L371,470.771 C359.954,470.771 351,461.817 351,450.771 L351,403 C351,391.954 359.954,383 371,383 L483,383 C494.046,383 503,391.954 503,403 L503,615.229 L523,615.229 C534.046,615.229 543,624.183 543,635.229 L543,683 C543,694.046 534.046,703 523,703 L371,703 C359.954,703 351,694.046 351,683 L351,635.229 C351,624.183 359.954,615.229 371,615.229 Z M447,191 C407.235,191 375,223.235 375,263 C375,302.765 407.235,335 447,335 C486.765,335 519,302.765 519,263 C519,223.235 486.764,191 447,191 Z" id="Shape"></path>
            <path d="M447,0.5 C200.068548,0.5 0,200.344758 0,447 C0,693.655242 200.068548,893.5 447,893.5 C693.931452,893.5 894,693.655242 894,447 C894,200.344758 693.931452,0.5 447,0.5 Z M447,807.080645 C247.832661,807.080645 86.516129,645.944556 86.516129,447 C86.516129,248.055444 247.832661,86.9193548 447,86.9193548 C646.167339,86.9193548 807.483871,248.055444 807.483871,447 C807.483871,645.944556 646.167339,807.080645 447,807.080645 Z" id="Shape-Copy-4"></path>
        </g>
    </g>
</svg>