<?xml version="1.0" encoding="UTF-8"?>
<svg width="893px" height="895px" viewBox="0 0 893 895" version="1.1" xmlns="http://www.w3.org/2000/svg" xmlns:xlink="http://www.w3.org/1999/xlink">
    <!-- Generator: Sketch 55.2 (78181) - https://sketchapp.com -->
    <title>shoe-prints-solid</title>
    <desc>Created with Sketch.</desc>
    <g id="Page-1" stroke="none" stroke-width="1" fill="none" fill-rule="evenodd">
        <g id="shoe-prints-solid" transform="translate(446.500000, 447.500000) rotate(-90.000000) translate(-446.500000, -447.500000) translate(-1.000000, 1.000000)" fill="#FFFFFF" fill-rule="nonzero">
            <path d="M341.1,367.310293 L367.7,367.310293 L367.7,261.060476 L341.1,261.060476 C311.715313,261.060476 287.9,284.842173 287.9,314.185385 C287.9,343.528596 311.715313,367.310293 341.1,367.310293 Z M181.5,579.809929 C181.5,609.15314 205.315313,632.934838 234.7,632.934838 L261.3,632.934838 L261.3,526.68502 L234.7,526.68502 C205.315313,526.68502 181.5,550.466717 181.5,579.809929 Z M462.013625,473.560111 C432.994688,473.560111 398.705625,484.450717 374.956813,500.122565 C354.350125,513.719222 337.949563,526.68502 287.9,526.68502 L287.9,632.934838 L335.721813,646.191162 C357.508875,652.234121 379.786375,657.081769 402.4795,658.683817 C429.653063,660.601294 457.0095,659.239968 483.592875,653.537341 C574.598125,634.013937 607.1,590.783543 607.1,553.247474 C607.1,500.122565 537.125375,473.560111 462.013625,473.560111 Z M589.992875,240.466273 C563.4095,234.763646 536.053063,233.394019 508.8795,235.319797 C486.186375,236.921845 463.908875,241.769493 442.121813,247.804151 L394.3,261.060476 L394.3,367.310293 C444.34125,367.310293 460.750125,380.276091 481.356813,393.872748 C505.105625,409.544596 539.394688,420.435202 568.413625,420.435202 C643.525375,420.435202 713.5,393.872748 713.5,340.747839 C713.5,303.211771 680.998125,259.981376 589.992875,240.466273 L589.992875,240.466273 Z" id="Shape"></path>
            <path d="M447.5,0 C200.568548,0 0.5,199.844758 0.5,446.5 C0.5,693.155242 200.568548,893 447.5,893 C694.431452,893 894.5,693.155242 894.5,446.5 C894.5,199.844758 694.431452,0 447.5,0 Z M447.5,806.580645 C248.332661,806.580645 87.016129,645.444556 87.016129,446.5 C87.016129,247.555444 248.332661,86.4193548 447.5,86.4193548 C646.667339,86.4193548 807.983871,247.555444 807.983871,446.5 C807.983871,645.444556 646.667339,806.580645 447.5,806.580645 Z" id="Shape-Copy-3"></path>
        </g>
    </g>
</svg>